<?xml version="1.0" standalone="no"?><!DOCTYPE svg PUBLIC "-//W3C//DTD SVG 1.1//EN" "http://www.w3.org/Graphics/SVG/1.1/DTD/svg11.dtd">
<svg
	t="1739266182011"
	class="icon"
	viewBox="0 0 1024 1024"
	version="1.1"
	xmlns="http://www.w3.org/2000/svg"
	p-id="16931"
	xmlns:xlink="http://www.w3.org/1999/xlink"
	width="128"
	height="128"
>
	<path
		class="p"
		d="M305.572 958.122c-20.41-0.01-36.95-16.56-36.94-36.97 0-3.35 0.46-6.69 1.36-9.92l84.28-302.19-184.32 1.42a36.055 36.055 0 0 1-30.89-16.24 36.946 36.946 0 0 1-3.6-34.7l193.8-474.36a36.97 36.97 0 0 1 34.22-22.98h362.23c20.42 0.01 36.96 16.57 36.95 36.99 0 4.65-0.88 9.27-2.6 13.6l-117.61 296.37h210.65c20.41 0.01 36.95 16.56 36.94 36.97 0 10.71-4.65 20.88-12.74 27.9l-547.57 475.05a36.875 36.875 0 0 1-24.16 9.06z m97.47-423.35c20.41 0.01 36.95 16.56 36.94 36.97 0 3.35-0.46 6.68-1.36 9.9l-64.45 231.07 379.98-329.68h-166.05c-20.39 0.02-36.94-16.5-36.96-36.89 0-4.68 0.88-9.33 2.61-13.68l117.62-296.39h-283.04l-163.49 400.05 177.9-1.42 0.3 0.07z"
		p-id="16932"
	></path>
</svg>
