<?xml version="1.0" standalone="no"?><!DOCTYPE svg PUBLIC "-//W3C//DTD SVG 1.1//EN" "http://www.w3.org/Graphics/SVG/1.1/DTD/svg11.dtd"><svg t="1736586310127" class="icon" viewBox="0 0 1024 1024" version="1.1" xmlns="http://www.w3.org/2000/svg" p-id="4252" xmlns:xlink="http://www.w3.org/1999/xlink" width="256" height="256"><path d="M512 730.4c-120.40000031 0-218.4-97.99999969-218.4-218.4S391.59999969 293.6 512 293.6s218.4 97.99999969 218.4 218.4-97.99999969 218.4-218.4 218.4z m0-356.80000031a138.43999969 138.43999969 0 0 0 0 276.80000062 138.43999969 138.43999969 0 0 0 0-276.80000062zM512 221.19999969c-22.00000031 0-40.00000031-18-40.00000031-39.99999938V123.99999969c0-22.00000031 18-40.00000031 40.00000031-39.99999938s40.00000031 18 40.00000031 39.99999938v57.20000062c0 22.00000031-17.59999969 40.00000031-40.00000031 39.99999938zM512 939.99999969c-22.00000031 0-40.00000031-18-40.00000031-39.99999938v-57.20000062c0-22.00000031 18-40.00000031 40.00000031-39.99999938s40.00000031 18 40.00000031 39.99999938v57.20000062c0 22.00000031-17.59999969 40.00000031-40.00000031 39.99999938zM900.00000031 552.00000031h-57.20000062c-22.00000031 0-40.00000031-18-39.99999938-40.00000031s18-40.00000031 39.99999938-40.00000031h57.20000062c22.00000031 0 40.00000031 18 39.99999938 40.00000031s-18 40.00000031-39.99999938 40.00000031zM181.20000031 552.00000031H124.4c-22.00000031 0-40.00000031-18-40.00000031-40.00000031s18-40.00000031 40.00000031-40.00000031h57.19999969c22.00000031 0 40.00000031 18 40.00000031 40.00000031s-18 40.00000031-40.39999969 40.00000031zM752.40000031 311.6c-10.39999969 0-20.4-4.00000031-28.40000062-11.59999969a39.84 39.84 0 0 1 0-56.4l80.00000062-80.00000062a39.84 39.84 0 1 1 56.4 56.4l-80.00000062 80.00000062a38.4 38.4 0 0 1-27.99999938 11.59999969zM192.39999969 872c-10.39999969 0-20.4-4.00000031-28.39999969-11.59999969a39.84 39.84 0 0 1 0-56.4l79.99999969-80.00000062a39.84 39.84 0 1 1 56.4 56.4l-79.99999969 80.00000062c-7.60000031 7.60000031-18 11.59999969-28.00000031 11.59999969zM832.4 872.40000031c-10.39999969 0-20.4-4.00000031-28.39999969-11.60000062l-80.00000062-79.99999969a39.84 39.84 0 1 1 56.4-56.4l80.00000062 79.99999969a39.84 39.84 0 0 1-28.00000031 68.00000062zM272.40000031 312.00000031c-10.39999969 0-20.80000031-4.00000031-28.40000062-11.60000062l-79.99999969-79.99999969A39.84 39.84 0 1 1 220.4 164l79.99999969 79.99999969a39.84 39.84 0 0 1-27.99999938 68.00000062z" p-id="4253"></path></svg>