<?xml version="1.0" standalone="no"?><!DOCTYPE svg PUBLIC "-//W3C//DTD SVG 1.1//EN" "http://www.w3.org/Graphics/SVG/1.1/DTD/svg11.dtd">
<svg
	t="1736496971322"
	class="icon"
	viewBox="0 0 1024 1024"
	version="1.1"
	xmlns="http://www.w3.org/2000/svg"
	p-id="4485"
	xmlns:xlink="http://www.w3.org/1999/xlink"
	width="256"
	height="256"
>
	<path
		d="M213.333333 703.338542v42.666666a85.333333 85.333333 0 0 0 78.933334 85.12L298.666667 831.338542h85.333333a42.666667 42.666667 0 0 1 0 85.333333H298.666667a170.666667 170.666667 0 0 1-170.666667-170.666667v-42.666666a42.666667 42.666667 0 0 1 85.333333 0z m560.042667-242.602667l170.666667 426.66666699a21.333333 21.333333 0 0 1-19.84 29.26933301h-45.994667a21.333333 21.333333 0 0 1-19.797333-13.39733301L812.544 788.671875h-174.506667l-45.781333 114.60266699a21.333333 21.333333 0 0 1-19.84 13.39733301H526.506667a21.333333 21.333333 0 0 1-19.797334-29.26933301l170.666667-426.66666699a21.333333 21.333333 0 0 1 19.797333-13.39733301h56.405334a21.333333 21.333333 0 0 1 19.84 13.39733301zM725.333333 570.431875L672.128 703.338542h106.325333L725.333333 570.431875zM341.333333 127.338542V191.338542h149.333334a21.333333 21.333333 0 0 1 21.333333 21.333333v256a21.333333 21.333333 0 0 1-21.333333 21.333333H341.333333v106.66666699a21.333333 21.333333 0 0 1-21.333333 21.33333301h-42.666667a21.333333 21.333333 0 0 1-21.333333-21.33333301V490.005208H106.666667a21.333333 21.333333 0 0 1-21.333334-21.333333v-256a21.333333 21.333333 0 0 1 21.333334-21.333333H256V127.338542a21.333333 21.333333 0 0 1 21.333333-21.33333401h42.666667a21.333333 21.333333 0 0 1 21.333333 21.33333401z m384 21.33333299a170.666667 170.666667 0 0 1 170.666667 170.666667v42.66666601a42.666667 42.666667 0 0 1-85.333333 0V319.33854199a85.333333 85.333333 0 0 0-85.333334-85.33333399h-85.333333a42.666667 42.666667 0 0 1 0-85.33333301h85.333333zM256 276.67187499H170.666667v128.00000001h85.333333V276.67187499z m170.666667 0H341.333333v128.00000001h85.333334V276.67187499z"
		p-id="4486"
	></path>
</svg>
