<?xml version="1.0" standalone="no"?><!DOCTYPE svg PUBLIC "-//W3C//DTD SVG 1.1//EN" "http://www.w3.org/Graphics/SVG/1.1/DTD/svg11.dtd"><svg t="1737111417178" class="icon" viewBox="0 0 1024 1024" version="1.1" xmlns="http://www.w3.org/2000/svg" p-id="10050" xmlns:xlink="http://www.w3.org/1999/xlink" width="256" height="256"><path d="M625.8 526.7H394.4c-24.7 0-44.8-20-44.8-44.8 0-24.7 20-44.8 44.8-44.8h231.4c24.7 0 44.8 20 44.8 44.8 0 24.7-20.1 44.8-44.8 44.8zM625.8 659.3H394.4c-24.7 0-44.8-20-44.8-44.8s20-44.8 44.8-44.8h231.4c24.7 0 44.8 20 44.8 44.8s-20.1 44.8-44.8 44.8z" p-id="10051"></path><path d="M510.1 745.2c-24.7 0-44.8-20-44.8-44.8V502c0-24.7 20-44.8 44.8-44.8 24.7 0 44.8 20 44.8 44.8v198.4c0 24.7-20.1 44.8-44.8 44.8z" p-id="10052"></path><path d="M492.8 500.2c-11.5 0-22.9-4.4-31.7-13.1l-88.6-88.6c-17.5-17.5-17.5-45.8 0-63.3s45.8-17.5 63.3 0l88.6 88.6c17.5 17.5 17.5 45.8 0 63.3-8.6 8.7-20.1 13.1-31.6 13.1z" p-id="10053"></path><path d="M525.7 500.2c-11.5 0-22.9-4.4-31.7-13.1-17.5-17.5-17.5-45.8 0-63.3l90.3-90.3c17.5-17.5 45.8-17.5 63.3 0s17.5 45.8 0 63.3l-90.3 90.3c-8.7 8.7-20.1 13.1-31.6 13.1z" p-id="10054"></path><path d="M510.1 959.7C263.2 959.7 62.4 758.9 62.4 512S263.2 64.2 510.1 64.2 957.9 265.1 957.9 512 757 959.7 510.1 959.7z m0-805.9c-197.5 0-358.2 160.7-358.2 358.2s160.7 358.2 358.2 358.2S868.3 709.5 868.3 512 707.6 153.8 510.1 153.8z" p-id="10055"></path></svg>