<?xml version="1.0" standalone="no"?><!DOCTYPE svg PUBLIC "-//W3C//DTD SVG 1.1//EN" "http://www.w3.org/Graphics/SVG/1.1/DTD/svg11.dtd"><svg t="1736686029767" class="icon" viewBox="0 0 1024 1024" version="1.1" xmlns="http://www.w3.org/2000/svg" p-id="5153" xmlns:xlink="http://www.w3.org/1999/xlink" width="128" height="128"><path d="M639.6 685.9c-11.5 0-22.9-4.4-31.7-13.1L351.2 416c-17.5-17.5-17.5-45.9 0-63.4s45.9-17.5 63.4 0l256.7 256.7c17.5 17.5 17.5 45.9 0 63.4-8.8 8.8-20.3 13.2-31.7 13.2z" p-id="5154"></path><path d="M382.8 685.9c-11.5 0-22.9-4.4-31.7-13.1-17.5-17.5-17.5-45.9 0-63.4l256.7-256.7c17.5-17.5 45.9-17.5 63.4 0s17.5 45.9 0 63.4L414.5 672.7c-8.7 8.8-20.2 13.2-31.7 13.2z" p-id="5155"></path><path d="M511.2 960.7c-114.8 0-229.5-43.7-316.9-131.1-174.8-174.8-174.8-459.1 0-633.9C369 21 653.4 21 828.1 195.8c174.8 174.8 174.8 459.1 0 633.9-87.3 87.3-202.1 131-316.9 131z m0-806.4c-91.8 0-183.6 35-253.5 104.8-139.8 139.8-139.8 367.3 0 507.1s367.3 139.8 507.1 0 139.8-367.3 0-507.1C694.9 189.3 603 154.3 511.2 154.3z m285.3 643.6h0.2-0.2z" p-id="5156"></path></svg>