<?xml version="1.0" standalone="no"?><!DOCTYPE svg PUBLIC "-//W3C//DTD SVG 1.1//EN" "http://www.w3.org/Graphics/SVG/1.1/DTD/svg11.dtd"><svg t="1736586312411" class="icon" viewBox="0 0 1024 1024" version="1.1" xmlns="http://www.w3.org/2000/svg" p-id="4413" xmlns:xlink="http://www.w3.org/1999/xlink" width="256" height="256"><path d="M513.16099773 932.36583492c-9.6749814 0-19.73696145-0.38699955-29.7989415-1.16099773C272.06046893 916.88586576 101.78080091 746.60619774 87.46182948 535.30461044c-15.47997006-226.39455783 148.22071021-425.69916825 372.68027211-453.95011338a47.33000726 47.33000726 0 0 1 39.86092155 80.10884354 252.94270568 252.94270568 0 0 0-69.65986396 208.59259319c13.93197278 112.2297805 105.65079365 203.94860137 217.88057506 217.88057415 77.39984853 9.6749814 153.25170068-15.86696871 208.59259229-69.65986394 14.70597098-13.93197278 36.37792924-17.41496598 54.17989388-8.51398368 18.18896418 8.90098232 28.63794377 28.63794377 25.92894966 48.37490612C910.60922177 773.30914558 727.17158004 932.36583492 513.16099773 932.36583492zM393.19123175 176.55631111a350.62131519 350.62131519 0 0 0-228.71655329 353.33031021c11.99697686 172.98866214 151.31670476 312.30839002 324.30536689 324.30536689 158.28269115 10.83597913 301.08541225-85.52683266 353.33031021-228.71655329a330.88435374 330.88435374 0 0 1-203.17460318 39.08692336c-146.67271383-18.57596372-266.64247891-138.15873016-285.21844353-285.21844263-8.90098232-71.20786122 5.41798912-141.64172336 39.4739229-202.78760454z" p-id="4414"></path></svg>