<?xml version="1.0" standalone="no"?><!DOCTYPE svg PUBLIC "-//W3C//DTD SVG 1.1//EN" "http://www.w3.org/Graphics/SVG/1.1/DTD/svg11.dtd">
<svg
	t="1736507350407"
	class="icon"
	viewBox="0 0 1024 1024"
	version="1.1"
	xmlns="http://www.w3.org/2000/svg"
	p-id="4808"
	xmlns:xlink="http://www.w3.org/1999/xlink"
	width="256"
	height="256"
>
	<path
		d="M761.5 928.3H228.3C156.5 928.3 98 869.8 98 798V277.6c0-71.8 58.5-130.3 130.3-130.3h248.8c23.2 0 42.1 18.8 42.1 42.1s-18.8 42.1-42.1 42.1H228.3c-25.5 0-46.2 20.7-46.2 46.2V798c0 25.5 20.7 46.2 46.2 46.2h533.2c25.5 0 46.2-20.7 46.2-46.2V501.2c0-23.2 18.8-42.1 42.1-42.1s42.1 18.8 42.1 42.1V798c-0.1 71.8-58.5 130.3-130.4 130.3z"
		p-id="4809"
	></path>
	<path
		d="M374.5 675.7c-11.1 0-21.8-4.4-29.7-12.3-9.1-9.1-13.6-22-12-34.8 12.3-101.9 59-198 131.6-270.5l245.2-245.2C726.2 96.2 748.4 87 772 87s45.8 9.2 62.5 25.9l60.7 60.6c34.5 34.5 34.5 90.6 0 125L650 543.8c-72.6 72.6-168.6 119.3-270.5 131.6-1.7 0.2-3.4 0.3-5 0.3zM772 171.3c-1.2 0-2.3 0.4-3 1.1L523.8 417.6c-45.1 45.1-78 101.3-95.6 162.3 61-17.6 117.2-50.5 162.3-95.6l245.2-245.2c1.7-1.7 1.7-4.4 0-6.1L775 172.4c-0.6-0.7-1.8-1.1-3-1.1z m93.5 97.6h0.2-0.2z"
		p-id="4810"
	></path>
</svg>
