<?xml version="1.0" standalone="no"?><!DOCTYPE svg PUBLIC "-//W3C//DTD SVG 1.1//EN" "http://www.w3.org/Graphics/SVG/1.1/DTD/svg11.dtd"><svg t="1736678565688" class="icon" viewBox="0 0 1024 1024" version="1.1" xmlns="http://www.w3.org/2000/svg" p-id="4477" xmlns:xlink="http://www.w3.org/1999/xlink" width="128" height="128"><path d="M125.28125027 160.43749973m35.15624946 0l703.12500054 0q35.15625027 0 35.15624946 35.15625027l0 0q0 35.15625027-35.15624946 35.15625027l-703.12500054 0q-35.15625027 0-35.15624946-35.15625027l0 0q0-35.15625027 35.15624946-35.15625027Z" p-id="4478"></path><path d="M441.68750027 371.37499973m35.15624946 0l386.71875054 0q35.15625027 0 35.15624946 35.15625027l0 0q0 35.15625027-35.15624946 35.15625027l-386.71875054 0q-35.15625027 0-35.15624946-35.15625027l0 0q0-35.15625027 35.15624946-35.15625027Z" p-id="4479"></path><path d="M441.68750027 582.31249973m35.15624946 0l386.71875054 0q35.15625027 0 35.15624946 35.15625027l0 0q0 35.15625027-35.15624946 35.15625027l-386.71875054 0q-35.15625027 0-35.15624946-35.15625027l0 0q0-35.15625027 35.15624946-35.15625027Z" p-id="4480"></path><path d="M125.28125027 793.24999973m35.15624946 0l703.12500054 0q35.15625027 0 35.15624946 35.15625027l0 0q0 35.15625027-35.15624946 35.15625027l-703.12500054 0q-35.15625027 0-35.15624946-35.15625027l0 0q0-35.15625027 35.15624946-35.15625027Z" p-id="4481"></path><path d="M282.95703152 378.16015625a35.15625027 35.15625027 0 0 1 44.89453098 53.92968777l-3.375 2.81249973L219.04296902 512l105.43359348 77.09765625a35.15625027 35.15625027 0 0 1 9.98437473 45.38671902l-2.35546821 3.72656196a35.15625027 35.15625027 0 0 1-45.42187554 10.01953125l-3.72656196-2.39062473-144.21093777-105.46875a35.15625027 35.15625027 0 0 1-3.375-53.96484348l3.375-2.81250054 144.21093777-105.46875z" p-id="4482"></path></svg>