<?xml version="1.0" standalone="no"?><!DOCTYPE svg PUBLIC "-//W3C//DTD SVG 1.1//EN" "http://www.w3.org/Graphics/SVG/1.1/DTD/svg11.dtd"><svg t="1736864587458" class="icon" viewBox="0 0 1024 1024" version="1.1" xmlns="http://www.w3.org/2000/svg" p-id="4348" xmlns:xlink="http://www.w3.org/1999/xlink" width="256" height="256"><path d="M828.74 92A105 105 0 0 1 932 197v631.74A105 105 0 0 1 827 932H515.78a15 15 0 0 1-15-15v-60a15 15 0 0 1 15-15h311.22a15.06 15.06 0 0 0 15-15V197a15.06 15.06 0 0 0-15-15H196.7a15 15 0 0 0-14.7 15v300a15 15 0 0 1-15 15h-60A15 15 0 0 1 92 497V195.26A105 105 0 0 1 197 92zM302 486.8a15 15 0 0 1 15 15v310.98a15 15 0 0 1-24.6 11.52l-186.6-155.46a15 15 0 0 1 0-23.04l186.6-155.46a15 15 0 0 1 9.6-3.48z m300 125.52a15 15 0 0 1 15 15v60a15 15 0 0 1-15 15H317v-90z" p-id="4349"></path></svg>