<?xml version="1.0" standalone="no"?><!DOCTYPE svg PUBLIC "-//W3C//DTD SVG 1.1//EN" "http://www.w3.org/Graphics/SVG/1.1/DTD/svg11.dtd">
<svg
	t="1736591017958"
	class="icon"
	viewBox="0 0 1024 1024"
	version="1.1"
	xmlns="http://www.w3.org/2000/svg"
	p-id="4282"
	xmlns:xlink="http://www.w3.org/1999/xlink"
	width="256"
	height="256"
>
	<path
		d="M512 88.0000003A435.6 435.6 0 0 0 72.00000031 518.8000003 431.59999969 431.59999969 0 0 0 372.8 928.0000003c22.00000031 4.00000031 30-9.19999969 30-20.80000031v-73.2c-122.4 25.99999969-148.39999969-57.6-148.39999969-57.6a114.40000031 114.40000031 0 0 0-48.80000062-63.19999969c-40.00000031-26.4 3.19999969-25.99999969 3.20000062-26.00000062a92.4 92.4 0 0 1 67.2 44.4 94.8 94.8 0 0 0 127.99999969 35.60000062 93.19999969 93.19999969 0 0 1 28.00000031-57.6c-97.60000031-10.8-199.99999969-47.59999969-200.00000062-212.80000031a166.00000031 166.00000031 0 0 1 44.4-116.4 151.2 151.2 0 0 1 4.40000062-113.59999969s37.2-11.59999969 120 43.99999969a427.2 427.2 0 0 1 219.99999938 0c84-55.60000031 120-43.99999969 120-43.99999969a151.2 151.2 0 0 1 4.40000062 113.59999969A166.00000031 166.00000031 0 0 1 792.00000031 496.0000003c0 165.6-103.2 202.00000031-200.00000062 212.79999938a100.00000031 100.00000031 0 0 1 30 80.00000062v117.99999938c0 13.99999969 7.99999969 25.2 30 20.80000031A432 432 0 0 0 951.99999969 518.8000003 435.6 435.6 0 0 0 512 88.0000003"
		p-id="4283"
	></path>
</svg>
