<?xml version="1.0" standalone="no"?><!DOCTYPE svg PUBLIC "-//W3C//DTD SVG 1.1//EN" "http://www.w3.org/Graphics/SVG/1.1/DTD/svg11.dtd">
<svg
	t="1736671760764"
	class="icon"
	viewBox="0 0 1024 1024"
	version="1.1"
	xmlns="http://www.w3.org/2000/svg"
	p-id="7110"
	xmlns:xlink="http://www.w3.org/1999/xlink"
	width="128"
	height="128"
>
	<path
		d="M725 920.1H614c-24.6 0-44.6-20-44.6-44.6v-214H456.6v214c0 24.6-20 44.6-44.6 44.6H298.5c-68.8 0-124.9-56-124.9-124.8v-259l-61.7 1c-19.4 0.9-35.7-11.2-42.4-28.8-6.7-17.6-1.6-37.4 12.6-49.7L483.9 113c16.7-14.4 41.5-14.4 58.2 0l401.7 345.8c14.2 12.2 19.3 32.1 12.6 49.7-6.7 17.6-24.3 28.9-42.4 28.8l-64.1-1v259c0 68.8-56 124.8-124.9 124.8z m-66.3-89.2H725c19.6 0 35.6-16 35.6-35.6V490.9c0-12 4.8-23.4 13.3-31.8 5.6-5.6 12.6-9.5 20.2-11.4L513 205.7 231.3 448.2c6.8 2.1 13.1 5.8 18.3 10.9 8.5 8.4 13.3 19.9 13.3 31.8v304.3c0 19.6 16 35.6 35.6 35.6h68.8V658.4c0-47.5 38.6-86.1 86.1-86.1h119.2c47.5 0 86.1 38.6 86.1 86.1v172.5z"
		p-id="7111"
	></path>
</svg>
