<?xml version="1.0" standalone="no"?><!DOCTYPE svg PUBLIC "-//W3C//DTD SVG 1.1//EN" "http://www.w3.org/Graphics/SVG/1.1/DTD/svg11.dtd"><svg t="1736858724505" class="icon" viewBox="0 0 1024 1024" version="1.1" xmlns="http://www.w3.org/2000/svg" p-id="2788" xmlns:xlink="http://www.w3.org/1999/xlink" width="256" height="256"><path d="M275.34222187 266.38222186c0-124.7459552 113.0496-213.90222187 236.65777813-213.90222187 102.49102187 0 195.24266667 59.84711147 226.19022187 150.82382187a54.61333333 54.61333333 0 0 1-103.40124374 35.13457813C620.99911147 197.79697812 574.4412448 161.70666666 512 161.70666666c-77.45991147 0-127.43111147 53.4755552-127.43111147 104.6755552V361.95555519h377.74222294a136.53333333 136.53333333 0 0 1 136.53333333 136.53333333v254.86222294a200.24888853 200.24888853 0 0 1-200.2488896 200.24888853H325.4044448a200.24888853 200.24888853 0 0 1-200.2488896-200.24888853V498.48888852a136.53333333 136.53333333 0 0 1 136.53333333-136.53333333h13.65333334V266.38222186z m291.27111146 332.23111146a54.61333333 54.61333333 0 0 0-109.22666666 0v68.26666667a54.61333333 54.61333333 0 0 0 109.22666666 0v-68.26666667z" p-id="2789"></path></svg>