<?xml version="1.0" standalone="no"?><!DOCTYPE svg PUBLIC "-//W3C//DTD SVG 1.1//EN" "http://www.w3.org/Graphics/SVG/1.1/DTD/svg11.dtd"><svg t="1736858737353" class="icon" viewBox="0 0 1024 1024" version="1.1" xmlns="http://www.w3.org/2000/svg" p-id="2788" xmlns:xlink="http://www.w3.org/1999/xlink" width="256" height="256"><path d="M658.38572999 76.54968889a308.45610667 308.45610667 0 0 1 218.11351779 377.77863111l-30.68055779 114.56663666 21.94242446 184.18043335a47.42864555 47.42864555 0 0 1-59.37076224 51.45789554L164.5355611 632.00369778a47.47719111 47.47719111 0 0 1-25.72894777-74.27413333l111.16847445-148.49972111 30.68055666-114.56663779a308.45610667 308.45610667 0 0 1 377.73008555-218.11351666zM425.07756999 947.45031111a142.38302777 142.38302777 0 0 0 174.32576-100.68271445l-275.00847332-73.69159111A142.38302777 142.38302777 0 0 0 425.07756999 947.45031111z" p-id="2789"></path></svg>