<?xml version="1.0" standalone="no"?><!DOCTYPE svg PUBLIC "-//W3C//DTD SVG 1.1//EN" "http://www.w3.org/Graphics/SVG/1.1/DTD/svg11.dtd"><svg t="1736858592311" class="icon" viewBox="0 0 1024 1024" version="1.1" xmlns="http://www.w3.org/2000/svg" p-id="2788" xmlns:xlink="http://www.w3.org/1999/xlink" width="256" height="256"><path d="M598.32603476 112.7773127a140.9021248 140.9021248 0 0 1 133.6691498 96.33008672L746.8368743 253.67943749h93.9347506A117.4184377 117.4184377 0 0 1 958.1900615 371.0978752v352.255312a187.8695001 187.8695001 0 0 1-187.86949899 187.8695001h-516.64112502a187.8695001 187.8695001 0 0 1-187.86949899-187.8695001V371.0978752A117.4184377 117.4184377 0 0 1 183.2283751 253.67943749h93.9347506l14.84168974-44.57203807A140.9021248 140.9021248 0 0 1 425.67396524 112.7773127h172.65206952zM512 723.3531872a164.3858119 164.3858119 0 1 0 0-328.7716249 164.3858119 164.3858119 0 0 0 0 328.7716249z" p-id="2789"></path></svg>