<?xml version="1.0" standalone="no"?><!DOCTYPE svg PUBLIC "-//W3C//DTD SVG 1.1//EN" "http://www.w3.org/Graphics/SVG/1.1/DTD/svg11.dtd"><svg t="1736859086754" class="icon" viewBox="0 0 1024 1024" version="1.1" xmlns="http://www.w3.org/2000/svg" p-id="5605" xmlns:xlink="http://www.w3.org/1999/xlink" width="256" height="256"><path d="M830.39 129.61A222.53 222.53 0 0 0 672 64H352a224 224 0 0 0-224 224v448a224 224 0 0 0 224 224h320a224 224 0 0 0 224-224V288a222.53 222.53 0 0 0-65.61-158.39zM512 736a32 32 0 0 1-32 32H352a32 32 0 0 1-32-32 32 32 0 0 1 32-32h128a32 32 0 0 1 32 32z m192-192a32 32 0 0 1-32 32H352a32 32 0 0 1-32-32 32 32 0 0 1 32-32h320a32 32 0 0 1 32 32z m0-192a32 32 0 0 1-32 32H352a32 32 0 0 1-32-32 32 32 0 0 1 32-32h320a32 32 0 0 1 32 32z" p-id="5606"></path></svg>