<?xml version="1.0" standalone="no"?><!DOCTYPE svg PUBLIC "-//W3C//DTD SVG 1.1//EN" "http://www.w3.org/Graphics/SVG/1.1/DTD/svg11.dtd"><svg t="1736861221861" class="icon" viewBox="0 0 1126 1024" version="1.1" xmlns="http://www.w3.org/2000/svg" p-id="2728" xmlns:xlink="http://www.w3.org/1999/xlink" width="281.5" height="256"><path d="M805.26228974 886.75074491h-487.2651379a34.5515279 34.5515279 0 0 0-34.81730827 34.10855913 34.5515279 34.5515279 0 0 0 34.81730827 34.10856001h487.2651379a34.5515279 34.5515279 0 0 0 34.81730917-34.10856001 34.5515279 34.5515279 0 0 0-34.81730917-34.01996539zM909.71421632 69.03124999H213.45663153C137.00030229 69.03124999 74.36458334 130.33806357 74.36458334 205.28830167v442.96830702c0 75.03883099 62.63571895 136.34564454 139.18064195 136.34564458H909.80281006c76.54492386 0 139.18064194-61.30681357 139.18064199-136.34564458v-442.96830702C1048.89485915 130.33806357 986.25914018 69.03124999 909.71421632 69.03124999zM631.26433866 546.10811705a34.5515279 34.5515279 0 0 1-34.81730827 34.01996539H317.99715184a34.5515279 34.5515279 0 0 1-34.81730827-34.01996539A34.5515279 34.5515279 0 0 1 317.99715184 511.99955702h278.44987855a34.5515279 34.5515279 0 0 1 34.81730827 34.10856003z m208.81526025-238.58273084a34.5515279 34.5515279 0 0 1-34.81730917 34.10856002h-487.2651379a34.5515279 34.5515279 0 0 1-34.81730827-34.10856002 34.5515279 34.5515279 0 0 1 34.81730827-34.0199654h487.2651379a34.5515279 34.5515279 0 0 1 34.81730917 34.0199654z" p-id="2729"></path></svg>