<?xml version="1.0" standalone="no"?><!DOCTYPE svg PUBLIC "-//W3C//DTD SVG 1.1//EN" "http://www.w3.org/Graphics/SVG/1.1/DTD/svg11.dtd"><svg t="1736859088796" class="icon" viewBox="0 0 1024 1024" version="1.1" xmlns="http://www.w3.org/2000/svg" p-id="5766" xmlns:xlink="http://www.w3.org/1999/xlink" width="256" height="256"><path d="M873.60177374 150.39822626A229.65051146 229.65051146 0 0 0 710.143613 82.6888385H313.856387A231.16754851 231.16754851 0 0 0 82.6888385 313.856387v396.287226a231.16754851 231.16754851 0 0 0 231.1675485 231.1675485h396.287226a231.16754851 231.16754851 0 0 0 231.1675485-231.1675485V313.856387a229.65051146 229.65051146 0 0 0-67.70938776-163.45816074zM710.143613 743.16754851a33.0239355 33.0239355 0 0 1-33.0239355 33.02393549H346.8803225a33.0239355 33.0239355 0 0 1-33.0239355-33.02393549 33.0239355 33.0239355 0 0 1 33.0239355-33.02393551h330.239355a33.0239355 33.0239355 0 0 1 33.0239355 33.02393551z m-9.1641421-218.39141346L530.31796422 638.55391283a33.0239355 33.0239355 0 0 1-36.63592844 0L323.0205291 524.77613505A33.0239355 33.0239355 0 0 1 313.856387 478.9760645a33.0239355 33.0239355 0 0 1 45.80007055-9.1641421l106.48155202 71.00146132a8.25598388 8.25598388 0 0 0 12.83805493-6.87310657V280.83245149a33.0239355 33.0239355 0 0 1 33.0239355-33.02393549 33.0239355 33.0239355 0 0 1 33.0239355 33.02393549v253.10782566a8.25598388 8.25598388 0 0 0 12.83805493 6.87310657l106.48155202-71.00146132A33.0239355 33.0239355 0 0 1 710.143613 478.9760645a33.0239355 33.0239355 0 0 1-9.1641421 45.80007055z" p-id="5767"></path></svg>