<?xml version="1.0" standalone="no"?><!DOCTYPE svg PUBLIC "-//W3C//DTD SVG 1.1//EN" "http://www.w3.org/Graphics/SVG/1.1/DTD/svg11.dtd"><svg t="1736860778178" class="icon" viewBox="0 0 1024 1024" version="1.1" xmlns="http://www.w3.org/2000/svg" p-id="2698" xmlns:xlink="http://www.w3.org/1999/xlink" width="256" height="256"><path d="M512 958.87999963a446.87999963 446.87999963 0 1 0 0-893.75999926 446.87999963 446.87999963 0 0 0 0 893.75999926z m70.56-630.33599963a70.56 70.56 0 1 1-141.12 0 70.56 70.56 0 0 1 141.12 0zM606.07999963 661.30496a56.448 56.448 0 0 1-15.66431999 78.27455963c-13.87680037 9.26687963-39.09024 23.70816-65.05632001 28.55328037-12.23039963 2.25792-36.26784 4.70400037-59.03519925-9.54911963-26.95392-16.88735963-34.24511962-44.87616-34.24512075-65.95008037v-2.8224l18.3456-183.456a56.448 56.448 0 1 1 112.33151999 11.2896l-11.90111925 119.15232036a56.448 56.448 0 0 1 55.22495926 24.50783964z" p-id="2699"></path></svg>