<?xml version="1.0" standalone="no"?><!DOCTYPE svg PUBLIC "-//W3C//DTD SVG 1.1//EN" "http://www.w3.org/Graphics/SVG/1.1/DTD/svg11.dtd"><svg t="1736863681958" class="icon" viewBox="0 0 1137 1024" version="1.1" xmlns="http://www.w3.org/2000/svg" p-id="2788" xmlns:xlink="http://www.w3.org/1999/xlink" width="284.25" height="256"><path d="M1047.68 852.32c0 61.92-49.92 111.84-111.84 111.84H196.16c-61.92 0-111.84-49.92-111.84-111.84V434.24h963.36v418.08zM219.2 519.2c-24.96 0-45.12 20.16-45.12 45.12s20.16 45.12 45.12 45.12h331.2c24.96 0 45.12-20.16 45.12-45.12s-20.16-45.12-45.12-45.12H219.2z m0 150.24c-24.96 0-45.12 20.16-45.12 45.12s20.16 45.12 45.12 45.12h572.64c24.96 0 45.12-20.16 45.12-45.12s-20.16-45.12-45.12-45.12H219.2z m828-327.36H84.32v-105.6c0-61.92 50.4-111.84 112.8-111.84h56.64c0-47.52 38.88-85.92 86.88-85.92 48 0 86.88 38.4 86.88 85.92h280.32c0-47.52 38.88-85.92 86.88-85.92 48 0 86.88 38.4 86.88 85.92h56.16c62.4 0 109.92 49.92 109.92 111.84v105.6z" p-id="2789"></path></svg>