<?xml version="1.0" standalone="no"?><!DOCTYPE svg PUBLIC "-//W3C//DTD SVG 1.1//EN" "http://www.w3.org/Graphics/SVG/1.1/DTD/svg11.dtd"><svg t="1736862446946" class="icon" viewBox="0 0 1024 1024" version="1.1" xmlns="http://www.w3.org/2000/svg" p-id="3102" xmlns:xlink="http://www.w3.org/1999/xlink" width="256" height="256"><path d="M448.71875012 258.87499963a189.84374963 189.84374963 0 1 1-379.68750012 0 189.84374963 189.84374963 0 0 1 379.68750012 0z m506.24999988 0a189.84374963 189.84374963 0 1 1-379.68750012 0 189.84374963 189.84374963 0 0 1 379.68750012 0zM258.87499963 954.96875a189.84374963 189.84374963 0 1 0 0-379.68750012 189.84374963 189.84374963 0 0 0 0 379.68750012z m696.09375037-189.84374963a189.84374963 189.84374963 0 1 1-379.68750012 0 189.84374963 189.84374963 0 0 1 379.68750012 0z" p-id="3103"></path></svg>