<?xml version="1.0" standalone="no"?><!DOCTYPE svg PUBLIC "-//W3C//DTD SVG 1.1//EN" "http://www.w3.org/Graphics/SVG/1.1/DTD/svg11.dtd"><svg t="1736863310501" class="icon" viewBox="0 0 1024 1024" version="1.1" xmlns="http://www.w3.org/2000/svg" p-id="3371" xmlns:xlink="http://www.w3.org/1999/xlink" width="256" height="256"><path d="M872 224H536c-12 0-30-6-36-18L404 92C398 86 380 74 368 74H152C98 74 56 116 56 170v678c0 54 42 96 96 96h720c54 0 96-42 96-96V320c6-54-42-96-96-96z m-192 486H344c-24 0-48-18-48-48 0-24 18-48 48-48h336c24 0 48 18 48 48 0 24-24 48-48 48z" p-id="3372"></path></svg>