<?xml version="1.0" standalone="no"?><!DOCTYPE svg PUBLIC "-//W3C//DTD SVG 1.1//EN" "http://www.w3.org/Graphics/SVG/1.1/DTD/svg11.dtd"><svg t="1736859852806" class="icon" viewBox="0 0 1024 1024" version="1.1" xmlns="http://www.w3.org/2000/svg" p-id="4716" xmlns:xlink="http://www.w3.org/1999/xlink" width="256" height="256"><path d="M512 69.03125C267.35721875 69.03125 69.03125 267.35721875 69.03125 512c0 244.64721094 198.32596875 442.96875 442.96875 442.96875 244.64721094 0 442.96875-198.32153906 442.96875-442.96875C954.96875 267.35721875 756.64721094 69.03125 512 69.03125z m30.73760156 724.15202344c-13.00999219 12.34553906-28.6335 18.56925-46.86609375 18.56925-23.247 0-41.75866406-6.39646875-55.48626562-19.14067969-13.75417969-12.75307031-20.62019531-27.85830469-20.62019532-45.3954375 0-18.45407812 7.00776562-33.80294531 20.99671875-45.91371094 13.98452344-12.10633594 31.00338281-18.17057812 50.98570313-18.17057812 19.23370313 0 35.78744531 6.05538281 49.68780469 18.17057812 13.84277344 12.11076563 20.78852344 27.45963281 20.78852343 45.91371094 0.01328906 18.28132031-6.47620312 33.56374219-19.48619531 45.96686719z m109.47086719-361.25430469c-12.25251562 22.49395312-34.74646875 47.12301563-67.47742969 73.8871875-26.24146875 22.0066875-42.48070312 39.123-48.73542187 51.34450781a84.51400781 84.51400781 0 0 0-9.37321875 38.99453906c0 13.49725781 3.37542187 26.59141406 10.12183593 39.40207032H435.14492187a144.34136719 144.34136719 0 0 1-8.99669531-50.29467188c0-42.21935156 19.98675-80.18620313 59.98682813-113.92713281 24.74423438-20.99228906 41.47073437-38.49841406 50.23708593-52.48736719 8.73977344-14.01553125 13.12516406-29.129625 13.12516407-45.3954375 0-17.70989062-6.25914844-32.30128125-18.7464375-43.66342969-12.47842969-11.36214844-28.62907031-17.07201562-48.35889844-17.07201562-46.25922656 0-89.231625 17.76304688-128.97035156 53.23598437V249.72263281c41.72765625-24.97457812 89.22719531-37.46186719 142.46760937-37.46186718 53.98460156 0 96.61148437 12.48728906 127.84964063 37.46186718 31.23372656 25.03216406 46.85723437 60.62027344 46.85723437 106.87507032-0.00885937 27.7475625-6.12182813 52.8373125-18.38763281 75.33126562z" p-id="4717"></path></svg>