<?xml version="1.0" standalone="no"?><!DOCTYPE svg PUBLIC "-//W3C//DTD SVG 1.1//EN" "http://www.w3.org/Graphics/SVG/1.1/DTD/svg11.dtd"><svg t="1736859090423" class="icon" viewBox="0 0 1024 1024" version="1.1" xmlns="http://www.w3.org/2000/svg" p-id="5927" xmlns:xlink="http://www.w3.org/1999/xlink" width="256" height="256"><path d="M894.39 193.61A222.53 222.53 0 0 0 736 128H288A224 224 0 0 0 64 352v320a224 224 0 0 0 224 224h448a224 224 0 0 0 224-224V352a222.53 222.53 0 0 0-65.61-158.39z m-140.7 233.32L526.31 540.62a32 32 0 0 1-28.62 0L270.31 426.93A32 32 0 0 1 256 384a32 32 0 0 1 42.93-14.31l205.91 103a16 16 0 0 0 14.32 0l205.91-103A32 32 0 0 1 768 384a32 32 0 0 1-14.31 42.93z" p-id="5928"></path></svg>