<?xml version="1.0" standalone="no"?><!DOCTYPE svg PUBLIC "-//W3C//DTD SVG 1.1//EN" "http://www.w3.org/Graphics/SVG/1.1/DTD/svg11.dtd"><svg t="1736864127187" class="icon" viewBox="0 0 1024 1024" version="1.1" xmlns="http://www.w3.org/2000/svg" p-id="2818" xmlns:xlink="http://www.w3.org/1999/xlink" width="256" height="256"><path d="M804.72746667 282.80604445h-35.49866667v361.54026666c0 12.56106667-4.36906667 25.12213333-13.65333333 33.86026667-16.93013333 16.384-42.5984 16.384-59.52853334 2.73066667l-84.10453333-67.1744h-0.54613333l-84.10453334 67.1744c-8.192 6.5536-18.0224 9.8304-28.39893333 9.8304-6.5536 0-13.1072-1.6384-19.6608-4.36906667-15.83786667-7.64586667-25.66826667-23.48373333-25.66826667-40.41386667V282.80604445H266.78613333c-35.49866667 0-66.62826667-26.2144-69.90506666-61.71306667-3.82293333-40.41386667 27.8528-74.27413333 67.72053333-74.27413333H823.296c24.02986667 0 45.32906667-18.0224 46.42133333-42.05226667 1.6384-26.2144-19.11466667-47.5136-44.78293333-47.5136H265.14773333c-86.8352 0-157.83253333 70.99733333-157.83253333 157.83253333v604.02346667c0 74.27413333 60.07466667 134.3488 134.3488 134.3488h560.87893333c75.3664 0 136.53333333-61.16693333 136.53333334-136.53333333V417.15484445c-0.54613333-74.27413333-60.6208-134.3488-134.3488-134.3488z" p-id="2819"></path><path d="M583.54346667 521.46631111c8.192-6.5536 18.0224-9.8304 28.39893333-9.8304 9.8304 0 19.6608 3.2768 28.39893333 9.8304l38.77546667 31.1296h0.54613333V370.18737778H544.768v181.8624s0 0.54613333 0.54613333 0l38.22933334-30.58346667z" p-id="2820"></path></svg>