<?xml version="1.0" standalone="no"?><!DOCTYPE svg PUBLIC "-//W3C//DTD SVG 1.1//EN" "http://www.w3.org/Graphics/SVG/1.1/DTD/svg11.dtd"><svg t="1736860781394" class="icon" viewBox="0 0 1024 1024" version="1.1" xmlns="http://www.w3.org/2000/svg" p-id="2859" xmlns:xlink="http://www.w3.org/1999/xlink" width="256" height="256"><path d="M267.52 893.44l-144.853333-14.72A39.04 39.04 0 0 1 85.333333 837.333333l75.733334-572.586666a42.666667 42.666667 0 0 1 47.786666-32.853334l144.853334 14.506667a39.04 39.04 0 0 1 37.76 41.386667l-76.16 572.8a42.666667 42.666667 0 0 1-47.786667 32.853333z" p-id="2860"></path><path d="M678.826667 310.826667m36.266666 0l188.373334 0q36.266667 0 36.266666 36.266666l0 501.546667q0 36.266667-36.266666 36.266667l-188.373334 0q-36.266667 0-36.266666-36.266667l0-501.546667q0-36.266667 36.266666-36.266666Z" p-id="2861"></path><path d="M391.893333 130.346667m36.266667 0l188.373333 0q36.266667 0 36.266667 36.266666l0 690.773334q0 36.266667-36.266667 36.266666l-188.373333 0q-36.266667 0-36.266667-36.266666l0-690.773334q0-36.266667 36.266667-36.266666Z" p-id="2862"></path></svg>