<?xml version="1.0" standalone="no"?><!DOCTYPE svg PUBLIC "-//W3C//DTD SVG 1.1//EN" "http://www.w3.org/Graphics/SVG/1.1/DTD/svg11.dtd"><svg t="1736862443982" class="icon" viewBox="0 0 1024 1024" version="1.1" xmlns="http://www.w3.org/2000/svg" p-id="2941" xmlns:xlink="http://www.w3.org/1999/xlink" width="256" height="256"><path d="M417.07812475 69.03125a63.28124988 63.28124988 0 0 0-63.28124987 63.28124988v31.64062537a63.28124988 63.28124988 0 0 0 63.28124987 63.28124987h189.8437505a63.28124988 63.28124988 0 0 0 63.28124987-63.28124988V132.31249988a63.28124988 63.28124988 0 0 0-63.28124988-63.28124988h-189.84375049zM243.05468738 132.31249988h31.64062537v31.64062537A142.38281287 142.38281287 0 0 0 417.07812475 306.33593725h189.8437505a142.38281287 142.38281287 0 0 0 142.382812-142.382812V132.31249988h31.64062537a94.92187525 94.92187525 0 0 1 94.92187525 94.92187524v632.81249963a94.92187525 94.92187525 0 0 1-94.92187525 94.92187525h-537.89062524a94.92187525 94.92187525 0 0 1-94.92187525-94.92187525v-632.81249963A94.92187525 94.92187525 0 0 1 243.05468738 132.31249988z" p-id="2942"></path></svg>