<?xml version="1.0" standalone="no"?><!DOCTYPE svg PUBLIC "-//W3C//DTD SVG 1.1//EN" "http://www.w3.org/Graphics/SVG/1.1/DTD/svg11.dtd"><svg t="1736858605484" class="icon" viewBox="0 0 1024 1024" version="1.1" xmlns="http://www.w3.org/2000/svg" p-id="2949" xmlns:xlink="http://www.w3.org/1999/xlink" width="256" height="256"><path d="M860.84266704 124.928c-43.008-19.11466704-95.57333296-19.11466704-200.704-19.11466704H363.86133296c-105.13066704 0-162.47466704 0-200.704 19.11466704-38.22933296 19.11466704-66.90133296 47.78666705-81.23733296 81.23733295-19.11466704 43.008-19.11466704 95.57333296-19.11466704 200.70400001V607.57333296c0 105.13066704 0 162.47466704 19.11466704 200.704 19.11466704 38.22933296 47.78666705 66.90133296 81.23733296 81.23733408 43.008 19.11466704 95.57333296 19.11466704 200.704 19.11466592h296.27733408c105.13066704 0 162.47466704 0 200.704-19.11466592 38.22933296-19.11466704 66.90133296-47.78666705 81.23733296-81.23733408 19.11466704-43.008 19.11466704-95.57333296 19.11466704-200.704V406.86933296c0-105.13066704 0-162.47466704-19.11466704-200.70400001-19.11466704-38.22933296-47.78666705-66.90133296-81.23733296-81.23733295zM249.17333296 373.41866704c0-43.008 33.45066704-76.45866703 76.45866704-76.45866704s76.45866703 33.45066704 76.45866704 76.45866704-33.45066704 76.45866703-76.45866704 76.45866592-76.45866703-33.45066704-76.45866704-76.45866592z m463.53066704 377.51466592h-334.50666704c-57.344 0-76.45866703-71.68-33.45066592-105.13066592l238.93333296-176.81066704c38.22933296-28.672 90.79466704-14.33599999 109.90933297 28.67200001l71.67999999 172.03199999c14.33599999 38.22933296-9.55733296 81.23733295-52.56533296 81.23733296z" p-id="2950"></path></svg>