<?xml version="1.0" standalone="no"?><!DOCTYPE svg PUBLIC "-//W3C//DTD SVG 1.1//EN" "http://www.w3.org/Graphics/SVG/1.1/DTD/svg11.dtd"><svg t="1736858626748" class="icon" viewBox="0 0 1024 1024" version="1.1" xmlns="http://www.w3.org/2000/svg" p-id="2788" xmlns:xlink="http://www.w3.org/1999/xlink" width="256" height="256"><path d="M488.66815963 139.18378703l1.41120001 0.84672001a455.34719963 455.34719963 0 0 1 132.93503999 115.62431925c13.92383962 18.15743963 14.44128037 48.54528-6.58559963 76.06368001-26.90687963 35.13888-76.25184038 43.65312037-113.31936 19.52160037L367.30495963 262.99306631a50.94431999 50.94431999 0 0 0-64.53887927 7.38528036l36.73823927 35.28-36.73823927-35.28-0.09408073 0.09407963-0.14112 0.14112001-0.42335999 0.47040035-1.41120001 1.50527964-5.22144 5.64480001c-4.51584 4.98624037-11.05440037 12.23039963-19.33344 21.82656073-16.65215999 19.28639963-40.45439963 47.83968-69.8544 85.98911926a2957.02848 2957.02848 0 0 0-113.55455962 158.52480037 393.25439963 393.25439963 0 0 1-27.61247964-144.88319963C65.12000037 239.0026663 191.98688038 104.9386663 353.24 104.9386663c49.20383964 0 94.45632037 13.92383962 135.42815963 34.24512073z" p-id="2789"></path><path d="M148.28671963 645.4282663c12.65375962 17.59295963 26.29536037 34.33920038 40.68960037 50.33280074 70.41888 77.99231963 161.81759963 140.17920037 248.08896 189.1008 46.52255963 26.34239964 103.34688037 26.34239964 149.86944 0 86.31839962-48.92159963 177.67008001-111.10848037 248.08896-189.1008 71.03040037-78.69791962 123.85631963-177.19967963 123.85631963-296.11680037 0-160.64160037-126.91392037-294.70560038-288.11999963-294.70560037-16.36992001 0-32.41055963 1.41119999-47.9808 4.09248a545.66399963 545.66399963 0 0 1 81.09695963 84.53088c48.82752 63.59807963 35.04480037 145.72991964-6.53855926 200.06112074a186.46656037 186.46656037 0 0 1-249.78240001 43.08863926l-99.11328036-64.44479963c-15.14688037 17.68704037-36.03264037 42.99455963-61.38719999 75.96960037a2957.92224037 2957.92224037 0 0 0-138.76800038 197.19167926z" p-id="2790"></path></svg>