<?xml version="1.0" standalone="no"?><!DOCTYPE svg PUBLIC "-//W3C//DTD SVG 1.1//EN" "http://www.w3.org/Graphics/SVG/1.1/DTD/svg11.dtd"><svg t="1736858672155" class="icon" viewBox="0 0 1024 1024" version="1.1" xmlns="http://www.w3.org/2000/svg" p-id="2788" xmlns:xlink="http://www.w3.org/1999/xlink" width="256" height="256"><path d="M858.75132275 229.97559047L604.46701904 82.02835979c-55.48021164-32.36345715-129.45382753-32.36345715-184.93403808 0L165.24867725 229.97559047C123.63851852 253.09234604 95.8984127 299.32585501 95.8984127 350.18271641v328.25791851c0 50.85686031 27.74010582 97.09037037 69.35026455 120.20712486l254.28430371 147.94723176c55.48021164 32.36345715 129.45382753 32.36345715 184.93403808 0l254.28430371-147.94723176c41.61015873-23.11675449 69.35026455-69.35026455 69.35026455-120.20712486V350.18271641c0-50.85686031-27.74010582-97.09037037-69.35026455-120.20712594zM512 650.7005291c-78.59696613 0-138.7005291-60.10356297-138.7005291-138.7005291s60.10356297-138.7005291 138.7005291-138.7005291 138.7005291 60.10356297 138.7005291 138.7005291-60.10356297 138.7005291-138.7005291 138.7005291z" p-id="2789"></path></svg>