<?xml version="1.0" standalone="no"?><!DOCTYPE svg PUBLIC "-//W3C//DTD SVG 1.1//EN" "http://www.w3.org/Graphics/SVG/1.1/DTD/svg11.dtd"><svg t="1736858393545" class="icon" viewBox="0 0 1024 1024" version="1.1" xmlns="http://www.w3.org/2000/svg" p-id="5221" xmlns:xlink="http://www.w3.org/1999/xlink" width="256" height="256"><path d="M842.10725888 172.18370333H657.63555555v-38.83614778c0-33.98163001-24.27259221-58.25422222-58.25422222-58.25422222h-174.76266666C390.63703666 75.09333333 366.36444445 99.36592555 366.36444445 133.34755555V172.18370333H181.89274112C147.91111111 172.18370333 123.6385189 196.45629667 123.6385189 230.43792555v29.12711111C123.6385189 293.54666667 147.91111111 317.81925888 181.89274112 317.81925888h660.21451776c33.98163001 0 58.25422222-24.27259221 58.25422222-58.25422222v-29.12711111c0-33.98163001-24.27259221-58.25422222-58.25422222-58.25422222zM817.83466667 385.7825189H206.16533333c-19.41807445 0-29.12711111 14.56355555-29.12711111 33.98162887l33.98163001 373.79792668C220.72888889 880.94340779 293.54666667 948.90666667 380.928 948.90666667h271.85303666c87.38133333 0 160.19911111-67.96325888 169.90814891-155.34459222l33.98162886-373.79792668c0-19.41807445-9.70903666-33.98163001-29.1271111-33.98162887z m-393.216 383.5069622c-33.98163001 0-58.25422222-19.41807445-63.10874112-53.39970332l-14.56355556-140.78103666c0-33.98163001 19.41807445-58.25422222 53.39970446-63.10874112s58.25422222 19.41807445 63.10873998 53.39970333l14.56355556 140.78103779c0 33.98163001-19.41807445 58.25422222-53.39970332 63.10873998z m233.01688888-53.39970332c0 33.98163001-29.12711111 53.39970333-63.10874112 53.39970332-33.98163001 0-53.39970333-29.12711111-53.39970332-63.10873998l14.56355556-140.78103779c0-33.98163001 29.12711111-53.39970333 63.10874112-53.39970333 33.98163001 0 53.39970333 29.12711111 53.39970332 63.10874112l-14.56355556 140.78103666z" p-id="5222"></path></svg>