<?xml version="1.0" standalone="no"?><!DOCTYPE svg PUBLIC "-//W3C//DTD SVG 1.1//EN" "http://www.w3.org/Graphics/SVG/1.1/DTD/svg11.dtd"><svg t="1736859503245" class="icon" viewBox="0 0 1024 1024" version="1.1" xmlns="http://www.w3.org/2000/svg" p-id="6564" xmlns:xlink="http://www.w3.org/1999/xlink" width="256" height="256"><path d="M512 65.8099385c-244.23035002 0-446.1900615 201.95971258-446.1900615 446.1900615s201.95971258 446.1900615 446.1900615 446.1900615 446.1900615-201.95971258 446.1900615-446.1900615-201.95971258-446.1900615-446.1900615-446.1900615z m-37.57389958 375.7389991c14.09021248 9.39347462 28.18042496 14.09021248 56.36084992 23.4836871 23.4836871 9.39347462 51.66411206 18.78695034 70.4510624 37.57390068 23.4836871 18.78695034 51.66411206 46.9673753 46.9673742 89.23801164 0 32.87716282-18.78695034 61.05758778-42.27063744 79.84453812-14.09021248 14.09021248-32.87716282 18.78695034-51.66411206 23.4836871v23.4836871c0 28.18042496-18.78695034 46.9673753-46.9673753 46.9673753s-46.9673753-18.78695034-46.9673742-46.9673753v-23.4836871c-28.18042496-4.69673786-51.66411206-14.09021248-75.14780026-28.18042496s-28.18042496-42.27063744-14.09021248-65.75432454c14.09021248-23.4836871 42.27063744-28.18042496 65.75432454-14.09021248 18.78695034 14.09021248 51.66411206 18.78695034 84.54127488 14.09021248 14.09021248 0 23.4836871-4.69673786 28.18042496-9.39347572l-9.39347462-9.39347462c-14.09021248-9.39347462-28.18042496-14.09021248-56.36084992-23.4836871-23.4836871-9.39347462-51.66411206-18.78695034-70.4510624-37.57390068-23.4836871-18.78695034-51.66411206-46.9673753-46.9673753-89.23801164 0-32.87716282 18.78695034-61.05758778 42.27063744-79.84453812 14.09021248-14.09021248 32.87716282-18.78695034 51.66411316-23.4836871v-23.4836871c0-28.18042496 18.78695034-46.9673753 46.9673742-46.9673753s46.9673753 18.78695034 46.9673753 46.9673753v23.4836871c28.18042496 4.69673786 51.66411206 14.09021248 75.14780026 28.18042496s28.18042496 42.27063744 14.09021249 65.75432454c-14.09021248 23.4836871-42.27063744 28.18042496-65.75432565 14.09021248-18.78695034-14.09021248-51.66411206-18.78695034-84.54127488-14.09021248-14.09021248 0-23.4836871 4.69673786-28.18042496 9.39347572l9.39347572 9.39347462z" p-id="6565"></path></svg>