<?xml version="1.0" standalone="no"?><!DOCTYPE svg PUBLIC "-//W3C//DTD SVG 1.1//EN" "http://www.w3.org/Graphics/SVG/1.1/DTD/svg11.dtd"><svg t="1736860014027" class="icon" viewBox="0 0 1024 1024" version="1.1" xmlns="http://www.w3.org/2000/svg" p-id="2728" xmlns:xlink="http://www.w3.org/1999/xlink" width="256" height="256"><path d="M662 493.22c-78.42 64.02-150 133.32-150 133.32L382.16 470l-63 63s55.68 64.08 105 126C473.66 721.16 512 779.3 512 779.3s101.64-116.22 202.92-210.42c56.94-52.92 126.66-114.12 178.86-159.36v430.2c0 50.94-41.34 92.28-92.28 92.28H222.44c-50.94 0-92.28-41.34-92.28-92.28V322.76c0-11.58 4.5-22.74 12.6-31.02l181.8-186.36C332.96 96.86 344.42 92 356.36 92H801.5c50.94 0 92.28 41.34 92.28 92.28V325.1C839.24 362.12 731.54 436.4 662 493.22z" p-id="2729"></path></svg>