<?xml version="1.0" standalone="no"?><!DOCTYPE svg PUBLIC "-//W3C//DTD SVG 1.1//EN" "http://www.w3.org/Graphics/SVG/1.1/DTD/svg11.dtd"><svg t="1736858647449" class="icon" viewBox="0 0 1024 1024" version="1.1" xmlns="http://www.w3.org/2000/svg" p-id="2788" xmlns:xlink="http://www.w3.org/1999/xlink" width="256" height="256"><path d="M743.16754814 233.15414498A161.81728359 161.81728359 0 0 0 581.35026455 71.3368603h-138.7005291A161.81728359 161.81728359 0 0 0 280.83245186 233.15414498V256.27089946h161.81728359V186.92063492h138.7005291V256.27089946H743.16754814v-23.11675448z" p-id="2789"></path><path d="M72.78165821 441.20493863a138.7005291 138.7005291 0 0 1 138.7005291-138.7005291h601.03562538a138.7005291 138.7005291 0 0 1 138.7005291 138.7005291v323.63456718a184.93403916 184.93403916 0 0 1-184.93403807 184.93403916h-508.56860744a184.93403916 184.93403916 0 0 1-184.93403807-184.93403916v-323.63456718z m519.20231321-35.69226985c-23.20922223-16.87523068-57.28331852-9.57033651-76.00788995 16.27419578l-67.82455873 93.57662327c-18.7708053 25.84453229-15.0721238 60.42719682 8.18333122 77.30242857l28.06374075 20.34274392c23.25545501 16.87523068 57.32955239 9.61657038 76.00788994-16.22796191l67.87079261-93.57662328c18.72457143-25.89076507 15.0721238-60.47343068-8.18333122-77.34866245l-28.06374075-20.3427439z" p-id="2790"></path></svg>