<?xml version="1.0" standalone="no"?><!DOCTYPE svg PUBLIC "-//W3C//DTD SVG 1.1//EN" "http://www.w3.org/Graphics/SVG/1.1/DTD/svg11.dtd">
<svg
	t="1736689273656"
	class="icon"
	viewBox="0 0 1024 1024"
	version="1.1"
	xmlns="http://www.w3.org/2000/svg"
	p-id="4346"
	xmlns:xlink="http://www.w3.org/1999/xlink"
	width="128"
	height="128"
>
	<path
		d="M422.912 436.67199999c0 46.72-37.888 84.672-84.672 84.672-46.656 0-84.672-37.888-84.672-84.672C253.568 389.82399999 291.584 351.99999999 338.24 351.99999999 385.024 351.99999999 422.912 389.82399999 422.912 436.67199999zM820.544 799.99999999c0 0-34.944-274.432-139.648-274.432-104.768 0-139.712 134.912-209.408 134.912-69.952 0-69.952-33.728-139.776-33.728C261.888 626.75199999 192 799.99999999 192 799.99999999L820.544 799.99999999 820.544 799.99999999zM896 159.99999999L128 159.99999999l0 704 768 0L896 159.99999999M896 95.99999999c35.392 0 64 28.672 64 64l0 704c0 35.392-28.608 64-64 64L128 927.99999999c-35.328 0-64-28.608-64-64L64 159.99999999c0-35.328 28.672-64 64-64L896 95.99999999 896 95.99999999z"
		p-id="4347"
	></path>
</svg>
