<?xml version="1.0" standalone="no"?><!DOCTYPE svg PUBLIC "-//W3C//DTD SVG 1.1//EN" "http://www.w3.org/Graphics/SVG/1.1/DTD/svg11.dtd"><svg t="1736674870227" class="icon" viewBox="0 0 1024 1024" version="1.1" xmlns="http://www.w3.org/2000/svg" p-id="4286" xmlns:xlink="http://www.w3.org/1999/xlink" width="128" height="128"><path d="M872.4 556.6s-0.1 0 0 0l-719.9-0.6c-24.6 0-44.6-20-44.6-44.7 0-24.6 20-44.6 44.6-44.6l719.8 0.7c24.6 0 44.6 20 44.6 44.7 0.1 24.6-19.9 44.5-44.5 44.5z" p-id="4287"></path><path d="M456.8 924.1c-11.4 0-22.8-4.4-31.5-13.1L167.7 653.5c-78.4-78.4-78.4-205.9 0-284.3l257.5-257.5c17.4-17.4 45.7-17.4 63.1 0s17.4 45.7 0 63.1L230.8 432.3c-43.6 43.6-43.6 114.5 0 158.1l257.5 257.5c17.4 17.4 17.4 45.7 0 63.1-8.6 8.7-20.1 13.1-31.5 13.1z" p-id="4288"></path></svg>