<?xml version="1.0" standalone="no"?><!DOCTYPE svg PUBLIC "-//W3C//DTD SVG 1.1//EN" "http://www.w3.org/Graphics/SVG/1.1/DTD/svg11.dtd"><svg t="1737110762098" class="icon" viewBox="0 0 1024 1024" version="1.1" xmlns="http://www.w3.org/2000/svg" p-id="4592" xmlns:xlink="http://www.w3.org/1999/xlink" width="256" height="256"><path d="M705.7 957H320.3c-100.2 0-181.7-81.5-181.7-181.7V327.1c0-100.2 81.5-181.7 181.7-181.7h385.4c100.2 0 181.7 81.5 181.7 181.7v448.2c0 100.2-81.5 181.7-181.7 181.7zM320.3 234.7c-50.9 0-92.3 41.4-92.3 92.3v448.2c0 50.9 41.4 92.3 92.3 92.3h385.4c50.9 0 92.3-41.4 92.3-92.3V327.1c0-50.9-41.4-92.3-92.3-92.3H320.3z" p-id="4593"></path><path d="M642.2 275H383.9c-1.1 0-2-0.9-2-2V109.8c0-1.1 0.9-2.1 2.1-2.1h258.2c1.1 0 2.1 0.9 2.1 2.1V273c-0.1 1.1-1 2-2.1 2z" p-id="4594"></path><path d="M598.8 319.7H427.2c-49.7 0-90.1-40.4-90.1-90.1V154c0-50.2 40.8-91 90.9-91h169.8c50.2 0 91 40.8 91 91v75.6c0.1 49.7-40.3 90.1-90 90.1zM428.1 152.4l-1.5 77.2 172.2 0.7c0.4 0 0.7-0.3 0.7-0.7V154l-171.4-1.6zM685.4 532.7H340.6c-24.7 0-44.7-20-44.7-44.7 0-24.7 20-44.7 44.7-44.7h344.9c24.7 0 44.7 20 44.7 44.7-0.1 24.7-20.1 44.7-44.8 44.7zM530.9 736.5H340.6c-24.7 0-44.7-20-44.7-44.7 0-24.7 20-44.7 44.7-44.7H531c24.7 0 44.7 20 44.7 44.7-0.1 24.7-20.1 44.7-44.8 44.7z" p-id="4595"></path></svg>