<?xml version="1.0" standalone="no"?><!DOCTYPE svg PUBLIC "-//W3C//DTD SVG 1.1//EN" "http://www.w3.org/Graphics/SVG/1.1/DTD/svg11.dtd"><svg t="1736691214532" class="icon" viewBox="0 0 1024 1024" version="1.1" xmlns="http://www.w3.org/2000/svg" p-id="4626" xmlns:xlink="http://www.w3.org/1999/xlink" width="128" height="128"><path d="M512.9 956.5c-246.1 0-446.4-200.3-446.4-446.4S266.8 63.8 512.9 63.8 959.3 264 959.3 510.1 759.1 956.5 512.9 956.5z m0-803.5C316 153 155.8 313.2 155.8 510.1S316 867.3 512.9 867.3 870.1 707 870.1 510.1 709.9 153 512.9 153z" p-id="4627"></path><path d="M471.5 701.1c-17.5 0-35-4.4-50.9-13.2-33.6-18.7-53.7-52.9-53.7-91.3V423.8c0-37.9 20.6-72.9 53.7-91.4s73.7-17.5 105.9 2.5l139.4 86.4c31 19.2 49.5 52.4 49.5 88.8s-18.5 69.7-49.5 88.9l-139.4 86.4c-16.8 10.4-35.9 15.7-55 15.7z m0-292.7c-3.2 0-5.8 1.1-7.5 2-2.9 1.6-7.8 5.5-7.8 13.4v172.8c0 7.8 4.9 11.7 7.8 13.3 2.9 1.7 8.9 3.8 15.5-0.4l139.4-86.4c6.3-3.9 7.2-9.8 7.2-13 0-3.2-0.9-9.1-7.2-13l-139.4-86.4c-2.8-1.7-5.5-2.3-8-2.3z" p-id="4628"></path></svg>