<?xml version="1.0" standalone="no"?><!DOCTYPE svg PUBLIC "-//W3C//DTD SVG 1.1//EN" "http://www.w3.org/Graphics/SVG/1.1/DTD/svg11.dtd"><svg t="1736684788952" class="icon" viewBox="0 0 1024 1024" version="1.1" xmlns="http://www.w3.org/2000/svg" p-id="4990" xmlns:xlink="http://www.w3.org/1999/xlink" width="128" height="128"><path d="M673.6 558H351c-24.7 0-44.8-20.1-44.8-44.8 0-24.7 20.1-44.8 44.8-44.8h322.5c24.7 0 44.8 20.1 44.8 44.8 0.1 24.8-20 44.8-44.7 44.8z" p-id="4991"></path><path d="M512.3 719.3c-24.7 0-44.8-20.1-44.8-44.8V352c0-24.7 20.1-44.8 44.8-44.8 24.7 0 44.8 20.1 44.8 44.8v322.6c0 24.7-20.1 44.7-44.8 44.7z" p-id="4992"></path><path d="M512.3 961.2c-247 0-448-201-448-448s201-448 448-448 448 201 448 448-201 448-448 448z m0-806.4c-197.6 0-358.4 160.8-358.4 358.4s160.8 358.4 358.4 358.4 358.4-160.8 358.4-358.4-160.8-358.4-358.4-358.4z" p-id="4993"></path></svg>