<?xml version="1.0" standalone="no"?><!DOCTYPE svg PUBLIC "-//W3C//DTD SVG 1.1//EN" "http://www.w3.org/Graphics/SVG/1.1/DTD/svg11.dtd"><svg t="1736674875481" class="icon" viewBox="0 0 1024 1024" version="1.1" xmlns="http://www.w3.org/2000/svg" p-id="4448" xmlns:xlink="http://www.w3.org/1999/xlink" width="128" height="128"><path d="M874.9 558.1s-0.1 0 0 0l-723.8-0.7c-24.8 0-44.8-20.1-44.8-44.9 0-24.8 20.1-44.8 44.9-44.8l723.7 0.7c24.8 0 44.8 20.1 44.8 44.9 0 24.7-20.1 44.8-44.8 44.8z" p-id="4449"></path><path d="M568.9 928.2c-11.5 0-23-4.4-31.7-13.1-17.5-17.5-17.5-45.9 0-63.4l258.9-258.9c43.8-43.8 43.8-115.2 0-159l-258.9-259c-17.5-17.5-17.5-45.9 0-63.4s45.9-17.5 63.4 0l258.9 258.9c78.8 78.8 78.8 207.1 0 285.9L600.7 915.1c-8.8 8.7-20.3 13.1-31.8 13.1z" p-id="4450"></path></svg>