<?xml version="1.0" standalone="no"?><!DOCTYPE svg PUBLIC "-//W3C//DTD SVG 1.1//EN" "http://www.w3.org/Graphics/SVG/1.1/DTD/svg11.dtd">
<svg
	t="1736611815944"
	class="icon"
	viewBox="0 0 1024 1024"
	version="1.1"
	xmlns="http://www.w3.org/2000/svg"
	p-id="5078"
	xmlns:xlink="http://www.w3.org/1999/xlink"
	width="128"
	height="128"
>
	<path
		d="M258.875 737a37.50000029 37.50000029 0 0 1 37.2375 33.11250029L296.37500029 774.50000029v121.87499942a37.50000029 37.50000029 0 0 1-74.73750029 4.3875l-0.26250029-4.3875V811.99999971H136.99999971a37.50000029 37.50000029 0 0 1-37.2375-33.11249942L99.50000029 774.50000029a37.50000029 37.50000029 0 0 1 33.11249942-37.2375L136.99999971 737h121.87500029z m637.49999971 0a37.50000029 37.50000029 0 0 1 4.3875 74.73750029L896.37499971 811.99999971H811.99999971v84.375a37.50000029 37.50000029 0 0 1-33.11249942 37.2375L774.50000029 933.875a37.50000029 37.50000029 0 0 1-37.2375-33.11250029L737 896.37499971V774.50000029a37.50000029 37.50000029 0 0 1 33.11250029-37.2375L774.50000029 737h121.87499942zM699.49999971 287a37.50000029 37.50000029 0 0 1 37.50000029 37.50000029v374.99999942a37.50000029 37.50000029 0 0 1-37.50000029 37.50000029H324.50000029a37.50000029 37.50000029 0 0 1-37.50000029-37.50000029V324.50000029a37.50000029 37.50000029 0 0 1 37.50000029-37.50000029z m-37.49999942 74.99999971H361.99999971v300.00000058h300.00000058V361.99999971zM258.875 99.50000029a37.50000029 37.50000029 0 0 1 37.2375 33.11249942L296.37500029 136.99999971v121.87500029a37.50000029 37.50000029 0 0 1-33.11250029 37.2375l-4.3875 0.26250029H136.99999971a37.50000029 37.50000029 0 0 1-4.3875-74.73750029L136.99999971 221.37499971h84.375V136.99999971a37.50000029 37.50000029 0 0 1 33.11250029-37.2375L258.875 99.50000029zM774.50000029 99.50000029a37.50000029 37.50000029 0 0 1 37.2375 33.11249942L811.99999971 136.99999971v84.375h84.375a37.50000029 37.50000029 0 0 1 37.2375 33.11250029l0.26250029 4.3875a37.50000029 37.50000029 0 0 1-33.11250029 37.2375l-4.3875 0.26250029H774.50000029a37.50000029 37.50000029 0 0 1-37.2375-33.11250029L737 258.875V136.99999971a37.50000029 37.50000029 0 0 1 37.50000029-37.49999942z"
		p-id="5079"
	></path>
</svg>
