<?xml version="1.0" standalone="no"?><!DOCTYPE svg PUBLIC "-//W3C//DTD SVG 1.1//EN" "http://www.w3.org/Graphics/SVG/1.1/DTD/svg11.dtd">
<svg
	t="1736611812626"
	class="icon"
	viewBox="0 0 1024 1024"
	version="1.1"
	xmlns="http://www.w3.org/2000/svg"
	p-id="4756"
	xmlns:xlink="http://www.w3.org/1999/xlink"
	width="128"
	height="128"
>
	<path
		d="M887.00000029 99.50000029a37.50000029 37.50000029 0 0 1 37.2375 33.11249942L924.49999971 136.99999971v187.50000058a37.50000029 37.50000029 0 0 1-74.73749942 4.3875L849.5 324.50000029V174.5h-150.00000029a37.50000029 37.50000029 0 0 1-37.2375-33.11250029L662.00000029 136.99999971a37.50000029 37.50000029 0 0 1 33.11249942-37.2375L699.49999971 99.50000029h187.50000058z m0 562.5a37.50000029 37.50000029 0 0 1 37.2375 33.11249942L924.49999971 699.49999971v187.50000058a37.50000029 37.50000029 0 0 1-33.11249942 37.2375L887.00000029 924.49999971h-187.50000058a37.50000029 37.50000029 0 0 1-4.3875-74.73749942L699.49999971 849.5h150.00000029v-150.00000029a37.50000029 37.50000029 0 0 1 33.11250029-37.2375L887.00000029 662.00000029zM136.99999971 662.00000029a37.50000029 37.50000029 0 0 1 37.2375 33.11249942L174.5 699.49999971v150.00000029h150.00000029a37.50000029 37.50000029 0 0 1 37.2375 33.11250029L361.99999971 887.00000029a37.50000029 37.50000029 0 0 1-33.11249942 37.2375L324.50000029 924.49999971H136.99999971a37.50000029 37.50000029 0 0 1-37.2375-33.11249942L99.50000029 887.00000029v-187.50000058a37.50000029 37.50000029 0 0 1 37.49999942-37.49999942zM324.50000029 99.50000029a37.50000029 37.50000029 0 0 1 4.3875 74.73749942L324.50000029 174.5H174.5v150.00000029a37.50000029 37.50000029 0 0 1-33.11250029 37.2375L136.99999971 361.99999971a37.50000029 37.50000029 0 0 1-37.2375-33.11249942L99.50000029 324.50000029V136.99999971a37.50000029 37.50000029 0 0 1 33.11249942-37.2375L136.99999971 99.50000029h187.50000058zM699.49999971 287H324.50000029a37.50000029 37.50000029 0 0 0-37.50000029 37.50000029v374.99999942a37.50000029 37.50000029 0 0 0 37.50000029 37.50000029h374.99999942a37.50000029 37.50000029 0 0 0 37.50000029-37.50000029V324.50000029a37.50000029 37.50000029 0 0 0-37.50000029-37.50000029z m-37.49999942 74.99999971v300.00000058H361.99999971V361.99999971h300.00000058z"
		p-id="4757"
	></path>
</svg>
