<?xml version="1.0" standalone="no"?><!DOCTYPE svg PUBLIC "-//W3C//DTD SVG 1.1//EN" "http://www.w3.org/Graphics/SVG/1.1/DTD/svg11.dtd"><svg t="1736847072516" class="icon" viewBox="0 0 1024 1024" version="1.1" xmlns="http://www.w3.org/2000/svg" p-id="4506" xmlns:xlink="http://www.w3.org/1999/xlink" width="256" height="256"><path d="M668.6 922.2H357.4c-48.1 0-92.9-26-116.7-67.8L84.2 579.7c-23.4-41-23.4-92 0-133L240.8 172c23.8-41.8 68.5-67.8 116.7-67.8h311.1c48.1 0 92.9 26 116.7 67.8l156.6 274.7c23.4 41 23.4 92 0 133L785.2 854.4c-23.8 41.8-68.5 67.8-116.6 67.8zM357.4 193.8c-16 0-30.9 8.6-38.9 22.6L162 491.1c-7.8 13.7-7.8 30.6 0 44.3l156.6 274.7c7.9 13.9 22.8 22.6 38.9 22.6h311.1c16 0 30.9-8.6 38.9-22.6L864 535.4c7.8-13.7 7.8-30.6 0-44.3L707.4 216.4c-7.9-13.9-22.8-22.6-38.9-22.6H357.4z" p-id="4507"></path><path d="M513 696.4c-101 0-183.2-82.2-183.2-183.2S412 330.1 513 330.1s183.2 82.2 183.2 183.2S614 696.4 513 696.4z m0-276.8c-51.6 0-93.6 42-93.6 93.6s42 93.6 93.6 93.6 93.6-42 93.6-93.6-42-93.6-93.6-93.6z" p-id="4508"></path></svg>