<?xml version="1.0" standalone="no"?><!DOCTYPE svg PUBLIC "-//W3C//DTD SVG 1.1//EN" "http://www.w3.org/Graphics/SVG/1.1/DTD/svg11.dtd"><svg t="1737109812390" class="icon" viewBox="0 0 1024 1024" version="1.1" xmlns="http://www.w3.org/2000/svg" p-id="8336" xmlns:xlink="http://www.w3.org/1999/xlink" width="256" height="256"><path d="M477.9 929.5c-211.3 0-383.2-171.9-383.2-383.2s171.9-383.2 383.2-383.2c23 0 41.7 18.7 41.7 41.7v299.9h299.9c23 0 41.7 18.7 41.7 41.7-0.1 211.2-172 383.1-383.3 383.1z m-41.7-680.2C290.5 269.7 178 395.1 178 546.3c0 165.3 134.5 299.9 299.9 299.9 151.2 0 276.6-112.5 297-258.2h-297c-23 0-41.7-18.7-41.7-41.7v-297z" p-id="8337"></path><path d="M886.3 449.7H611.9c-23 0-41.7-18.7-41.7-41.7 0-77.1 0.9-110.9 1.7-143.6 0.8-31.4 1.6-61.1 1.6-127.6 0-23 18.7-41.7 41.7-41.7C787.7 95.2 928 235.5 928 408c0 23-18.7 41.7-41.7 41.7z m-232.7-83.4h187.2c-17.2-93.3-90.9-167-184.2-184.1-0.3 37.8-0.9 60.5-1.5 84.3-0.5 25.6-1.2 51.9-1.5 99.8z" p-id="8338"></path></svg>