<?xml version="1.0" standalone="no"?><!DOCTYPE svg PUBLIC "-//W3C//DTD SVG 1.1//EN" "http://www.w3.org/Graphics/SVG/1.1/DTD/svg11.dtd"><svg t="1737111307200" class="icon" viewBox="0 0 1024 1024" version="1.1" xmlns="http://www.w3.org/2000/svg" p-id="4917" xmlns:xlink="http://www.w3.org/1999/xlink" width="256" height="256"><path d="M667.1 550.7c53.1-43.8 87.1-110.1 87.1-184.1 0-131.5-107-238.5-238.6-238.5C384.1 128 277 235 277 366.5c0 74.1 33.9 140.3 87 184.1-91.6 46.4-159.5 133.9-178.1 241-4.4 25.5 2.6 51.4 19.3 71.3 16.8 19.9 41.3 31.4 67.3 31.4h485.9c26 0 50.5-11.4 67.3-31.3 16.7-19.8 23.7-45.8 19.3-71.3-18.4-107.1-86.3-194.6-177.9-241zM367.5 366.5c0-81.7 66.4-148.1 148.1-148.1s148.1 66.4 148.1 148.1c0 81.7-66.4 148.1-148.1 148.1s-148.1-66.4-148.1-148.1z m-91.9 438.3c21.2-115.8 121.8-199.7 240-199.7 117.9 0 218.3 83.4 239.9 198.8l-479.9 0.9z" p-id="4918"></path><path d="M857 533.9c29.3-31.4 46.2-73.2 46.2-116.8 0-53.7-24.5-103.2-67.1-135.9-19.7-15.1-48.2-11.4-63.4 8.4-15.2 19.8-11.4 48.2 8.4 63.4 20.1 15.4 31.7 38.8 31.7 64.1 0 25.8-12.5 50.2-33.4 65.3-20.1 14.5-30.5 37.9-28.1 62.6 2.4 24.3 17.8 45.8 40 55.9 51 23.2 83.9 74.3 83.9 130.3 0 25 20.3 45.2 45.2 45.2 25 0 45.2-20.3 45.2-45.2-0.1-80.5-41.8-154.9-108.6-197.3zM234.8 600.9c22.2-10.1 37.6-31.5 40-55.9 2.5-24.3-8.3-48.3-28-62.6-20.9-15.2-33.4-39.6-33.4-65.4 0-25.3 11.5-48.6 31.7-64.1 19.8-15.2 23.6-43.6 8.4-63.4-15.2-19.9-43.6-23.6-63.4-8.4C147.4 313.8 123 363.3 123 417c0 43.6 16.8 85.4 46.1 116.8-66.9 42.5-108.6 116.9-108.6 197.4 0 25 20.3 45.2 45.2 45.2 25 0 45.2-20.3 45.2-45.2 0-56 32.9-107.2 83.9-130.3z" p-id="4919"></path></svg>