<?xml version="1.0" standalone="no"?><!DOCTYPE svg PUBLIC "-//W3C//DTD SVG 1.1//EN" "http://www.w3.org/Graphics/SVG/1.1/DTD/svg11.dtd"><svg t="1737111300888" class="icon" viewBox="0 0 1024 1024" version="1.1" xmlns="http://www.w3.org/2000/svg" p-id="4755" xmlns:xlink="http://www.w3.org/1999/xlink" width="256" height="256"><path d="M541.8 928.5h-61.1c-50.6 0-91.8-41.2-91.8-91.8V613.6c0-50.6 41.2-91.8 91.8-91.8h61.1c50.6 0 91.8 41.2 91.8 91.8v223.1c0 50.7-41.1 91.8-91.8 91.8z m-61.1-316.2l-1.3 224.4 62.5 1.3c0.7 0 1.3-0.6 1.3-1.3V613.6l-62.5-1.3zM834.9 928.5h-61.1c-50.6 0-91.8-41.2-91.8-91.8V409.5c0-50.6 41.2-91.8 91.8-91.8h61.1c50.6 0 91.8 41.2 91.8 91.8v427.3c0 50.6-41.2 91.7-91.8 91.7z m-61.2-520.4l-1.3 428.6 62.5 1.3c0.7 0 1.3-0.6 1.3-1.3V409.5l-62.5-1.4zM252.4 928.5h-61.1c-50.6 0-91.8-41.2-91.8-91.8v-80.2c0-50.6 41.2-91.8 91.8-91.8h61.1c50.6 0 91.8 41.2 91.8 91.8v80.2c0 50.7-41.2 91.8-91.8 91.8z m-61.1-173.3l-1.3 81.5 62.5 1.3c0.7 0 1.3-0.6 1.3-1.3v-80.2l-62.5-1.3zM144.6 625.5c-11.6 0-23.2-4.4-32-13.3-17.7-17.7-17.6-46.3 0-64L526 135.3c17.7-17.6 46.3-17.6 64 0 17.7 17.7 17.6 46.3 0 64L176.6 612.2c-8.9 8.8-20.5 13.3-32 13.3z" p-id="4756"></path><path d="M588.4 364.7c-25 0-45.2-20.3-45.2-45.2V218.9c0-20.3-16.5-36.8-36.8-36.8H405.8c-25 0-45.2-20.3-45.2-45.2s20.3-45.2 45.2-45.2h100.6c70.2 0 127.2 57.1 127.2 127.2v100.6c0 25-20.2 45.2-45.2 45.2z" p-id="4757"></path></svg>